<?xml version="1.0" standalone="no"?>
<!DOCTYPE svg PUBLIC "-//W3C//DTD SVG 20010904//EN"
 "http://www.w3.org/TR/2001/REC-SVG-20010904/DTD/svg10.dtd">
<svg version="1.0" xmlns="http://www.w3.org/2000/svg"
 width="130.000000pt" height="130.000000pt" viewBox="0 0 130.000000 130.000000"
 preserveAspectRatio="xMidYMid meet">
<metadata>
Created by potrace 1.14, written by Peter Selinger 2001-2017
</metadata>
<g transform="translate(0.000000,130.000000) scale(0.100000,-0.100000)"
fill="#000000" stroke="none">
<path d="M420 916 c0 -21 -5 -26 -25 -26 -14 0 -25 -4 -25 -10 0 -5 -9 -10
-20 -10 -19 0 -20 -7 -20 -224 l0 -223 96 -7 c56 -4 120 -15 153 -27 69 -25
73 -25 145 0 33 12 99 24 152 27 l94 7 0 223 c0 217 -1 224 -20 224 -11 0 -20
5 -20 10 0 6 -11 10 -25 10 -20 0 -25 5 -25 26 0 25 -2 26 -37 19 -60 -11
-115 -39 -155 -79 l-37 -37 -37 37 c-40 39 -97 68 -156 79 -36 7 -38 6 -38
-19z m102 -25 c24 -10 60 -37 81 -60 l37 -41 0 -181 0 -181 -35 31 c-44 39
-80 57 -128 66 l-37 7 0 189 c0 214 -3 207 82 170z m338 -170 l0 -189 -37 -7
c-48 -9 -84 -27 -128 -66 l-35 -31 0 181 0 181 35 39 c38 41 105 80 143 81
l22 0 0 -189z m-440 -29 l0 -179 52 -11 c48 -12 124 -50 115 -58 -2 -2 -30 5
-62 16 -32 11 -68 20 -81 20 -55 0 -54 -2 -54 194 0 101 3 186 7 189 19 20 23
-8 23 -171z m485 -18 l0 -189 -52 -7 c-28 -4 -71 -14 -94 -22 -24 -8 -45 -14
-47 -12 -8 9 69 47 116 58 l52 11 0 180 c0 138 3 178 13 175 9 -4 12 -51 12
-194z m-533 -21 l3 -187 73 -12 c41 -7 77 -16 80 -20 4 -4 -11 -4 -33 -1 -22
4 -64 7 -92 7 l-53 0 0 200 c0 124 4 200 10 200 6 0 11 -74 12 -187z m578 -13
l0 -200 -52 0 c-29 0 -71 -3 -93 -5 -34 -5 -37 -4 -16 5 14 6 51 13 83 17 l58
6 0 188 c0 119 4 189 10 189 6 0 10 -73 10 -200z"/>
</g>
</svg>
